:FULLY-SPECIFIED
:FORCE-ALL-JOINTS-BE-3DOF
:DEGREES
1937
root 5.46414 13.7615 28.1946 -29.0058 72.1114 -33.2454
lfemur -62.7906 11.8696 -8.98271
ltibia 67.5355 -0 0
lfoot -4.65866 -0.0584422 -0.0987406
ltoes -33.012 0 0
rfemur -4.4387 -5.87729 18.5014
rtibia 61.9585 -0 0
rfoot -25.9726 -30.0022 0.0677353
rtoes -27.3432 0 0
lowerback 13.0268 4.44714 4.52665
upperback -0.799369 7.00809 3.56055
thorax -8.10686 3.32521 -0.0868459
lowerneck -0.313038 14.9755 7.16664
upperneck 5.2338 20.4095 -7.43266
head 3.44035 10.1633 -2.75818
lclavicle 4.57205e-14 -6.59965e-14 0
lhumerus 67.2712 -28.9171 52.3209
lradius 46.3552 -0 0
lwrist 4.51182 0 0
lhand -13.5253 34.4412 0.0116194
lfingers 7.12502 -0 0
lthumb 12.5877 64.0786 0.0128711
rclavicle 4.57205e-14 -6.59965e-14 0
rhumerus -41.712 24.839 -76.421
rradius 92.6624 -0 0
rwrist -36.2253 0 0
rhand -13.0868 -43.3837 0.032726
rfingers 7.12502 -0 0
rthumb 13.008 -72.9339 0.0370872
1938
root 5.3246 13.7751 28.2275 -30.9847 73.1252 -35.266
lfemur -62.9833 11.7211 -9.86898
ltibia 67.2432 -0 0
lfoot -4.79663 0.219966 -0.109171
ltoes -33.0009 0 0
rfemur -4.8726 -5.89855 18.9041
rtibia 62.0667 -0 0
rfoot -26.2776 -30.1895 0.074281
rtoes -27.4073 0 0
lowerback 13.1117 4.32503 4.60261
upperback -0.778653 6.86905 3.59031
thorax -8.13621 3.25639 -0.0725736
lowerneck -0.334786 14.938 7.14447
upperneck 5.13323 20.3556 -7.49335
head 3.40925 10.1356 -2.78017
lclavicle 4.57205e-14 -6.59965e-14 0
lhumerus 68.1886 -29.702 50.9588
lradius 48.9252 -0 0
lwrist 5.42882 0 0
lhand -13.5882 34.5618 0.00883307
lfingers 7.12502 -0 0
lthumb 12.5271 64.2039 0.0101325
rclavicle 4.57205e-14 -6.59965e-14 0
rhumerus -41.234 25.6009 -76.2624
rradius 92.8929 -0 0
rwrist -36.4883 0 0
rhand -12.8686 -43.3167 0.0362247
rfingers 7.12502 -0 0
rthumb 13.2182 -72.8511 0.0408655
1939
root 5.18506 13.7887 28.2605 -33.2907 74.1416 -37.6158
lfemur -63.1789 11.5763 -10.7832
ltibia 66.9448 -0 0
lfoot -4.94501 0.506832 -0.119069
ltoes -32.9626 0 0
rfemur -5.3162 -5.91714 19.3234
rtibia 62.1655 -0 0
rfoot -26.5969 -30.3844 0.079974
rtoes -27.4776 0 0
lowerback 13.2004 4.19847 4.68463
upperback -0.756989 6.72585 3.62267
thorax -8.16652 3.18543 -0.0581889
lowerneck -0.358176 14.8993 7.12092
upperneck 5.03003 20.2999 -7.55529
head 3.37735 10.1071 -2.80249
lclavicle 4.57205e-14 -6.59965e-14 0
lhumerus 69.1523 -30.4726 49.5634
lradius 51.5751 -0 0
lwrist 6.31303 0 0
lhand -13.6676 34.6911 0.00555757
lfingers 7.12502 -0 0
lthumb 12.4506 64.3383 0.00688905
rclavicle 4.57205e-14 -6.59965e-14 0
rhumerus -40.7617 26.3896 -76.1072
rradius 93.1529 -0 0
rwrist -36.7937 0 0
rhand -12.6429 -43.2457 0.0395448
rfingers 7.12502 -0 0
rthumb 13.4356 -72.7639 0.0444216
1940
root 5.04551 13.8023 28.2934 -35.9881 75.151 -40.3591
lfemur -63.376 11.435 -11.7219
ltibia 66.6411 -0 0
lfoot -5.103 0.801748 -0.128331
ltoes -32.9479 0 0
rfemur -5.76848 -5.93265 19.7572
rtibia 62.2557 -0 0
rfoot -26.9286 -30.586 0.0846745
rtoes -27.5527 0 0
lowerback 13.2921 4.06781 4.772
upperback -0.734503 6.57881 3.65739
thorax -8.19763 3.1125 -0.0435934
lowerneck -0.383165 14.8594 7.096
upperneck 4.92451 20.2422 -7.61825
head 3.34471 10.0775 -2.82504
lclavicle 4.57205e-14 -6.59965e-14 0
lhumerus 70.1585 -31.2252 48.1376
lradius 54.2944 -0 0
lwrist 7.16395 0 0
lhand -13.7626 34.8284 0.00189611
lfingers 7.12502 -0 0
lthumb 12.359 64.4812 0.00324493
rclavicle 4.57205e-14 -6.59965e-14 0
rhumerus -40.2959 27.2017 -75.9551
rradius 93.4402 -0 0
rwrist -37.139 0 0
rhand -12.4103 -43.171 0.042649
rfingers 7.12502 -0 0
rthumb 13.6598 -72.6725 0.0477179
1941
root 4.90597 13.8159 28.3264 -39.1551 76.1423 -43.5739
lfemur -63.5737 11.2974 -12.682
ltibia 66.3331 -0 0
lfoot -5.2698 1.1043 -0.136858
ltoes -32.9187 0 0
rfemur -6.22841 -5.94469 20.2036
rtibia 62.338 -0 0
rfoot -27.2706 -30.7934 0.0882628
rtoes -27.6315 0 0
lowerback 13.3865 3.93339 4.86399
upperback -0.711317 6.42823 3.69425
thorax -8.22941 3.03777 -0.0286889
lowerneck -0.409712 14.8182 7.06969
upperneck 4.81697 20.1826 -7.682
head 3.31141 10.047 -2.84774
lclavicle 4.57205e-14 -6.59965e-14 0
lhumerus 71.2026 -31.9562 46.6847
lradius 57.0722 -0 0
lwrist 7.9811 0 0
lhand -13.8722 34.973 -0.00204777
lfingers 7.12502 -0 0
lthumb 12.2532 64.6317 -0.00069513
rclavicle 4.57205e-14 -6.59965e-14 0
rhumerus -39.8373 28.0339 -75.8059
rradius 93.7527 -0 0
rwrist -37.5214 0 0
rhand -12.1712 -43.093 0.0455027
rfingers 7.12502 -0 0
rthumb 13.8902 -72.5773 0.0507195
1942
root 4.76643 13.8295 28.3593 -42.8845 77.1012 -47.353
lfemur -63.7708 11.1634 -13.6601
ltibia 66.0215 -0 0
lfoot -5.4446 1.41408 -0.144558
ltoes -32.8855 0 0
rfemur -6.69496 -5.95291 20.6605
rtibia 62.4132 -0 0
rfoot -27.6208 -31.0057 0.0906415
rtoes -27.7128 0 0
lowerback 13.4831 3.79556 4.95992
upperback -0.687554 6.27442 3.73302
thorax -8.26171 2.96141 -0.0133781
lowerneck -0.437773 14.7757 7.042
upperneck 4.7077 20.121 -7.7463
head 3.27753 10.0154 -2.87052
lclavicle 4.57205e-14 -6.59965e-14 0
lhumerus 72.28 -32.6623 45.2086
lradius 59.8978 -0 0
lwrist 8.76398 0 0
lhand -13.9957 35.1243 -0.00617165
lfingers 7.12502 -0 0
lthumb 12.1341 64.7894 -0.00482757
rclavicle 4.57205e-14 -6.59965e-14 0
rhumerus -39.3868 28.883 -75.6598
rradius 94.0883 -0 0
rwrist -37.9385 0 0
rhand -11.926 -43.012 0.0480737
rfingers 7.12502 -0 0
rthumb 14.1263 -72.4785 0.0533944
1943
root 4.62688 13.8431 28.3923 -47.2819 78.0104 -51.8018
lfemur -63.9661 11.0332 -14.6529
ltibia 65.7074 -0 0
lfoot -5.62661 1.73068 -0.151349
ltoes -32.8485 0 0
rfemur -7.16708 -5.95702 21.1259
rtibia 62.4818 -0 0
rfoot -27.977 -31.2219 0.0917375
rtoes -27.7955 0 0
lowerback 13.5814 3.65468 5.05907
upperback -0.663334 6.11768 3.77349
thorax -8.29438 2.88358 0.00243619
lowerneck -0.467306 14.7318 7.01293
upperneck 4.59701 20.0574 -7.81091
head 3.24315 9.98286 -2.89329
lclavicle 4.57205e-14 -6.59965e-14 0
lhumerus 73.3852 -33.3406 43.7136
lradius 62.7606 -0 0
lwrist 9.51212 0 0
lhand -14.132 35.2817 -0.0103757
lfingers 7.12502 -0 0
lthumb 12.0027 64.9533 -0.00905133
rclavicle 4.57205e-14 -6.59965e-14 0
rhumerus -38.9452 29.7456 -75.5168
rradius 94.4447 -0 0
rwrist -38.3877 0 0
rhand -11.6754 -42.9282 0.0503328
rfingers 7.12502 -0 0
rthumb 14.3677 -72.3766 0.0557137
1944
root 4.48734 13.8567 28.4252 -52.4577 78.848 -57.0306
lfemur -64.1587 10.907 -15.6572
ltibia 65.3916 -0 0
lfoot -5.81502 2.05367 -0.157155
ltoes -32.8077 0 0
rfemur -7.64371 -5.95677 21.5977
rtibia 62.5446 -0 0
rfoot -28.3372 -31.4411 0.0915029
rtoes -27.8783 0 0
lowerback 13.6808 3.51108 5.16074
upperback -0.638776 5.95833 3.81541
thorax -8.32728 2.80446 0.0188503
lowerneck -0.498268 14.6866 6.98246
upperneck 4.48519 19.9917 -7.8756
head 3.20833 9.94928 -2.91597
lclavicle 4.57205e-14 -6.59965e-14 0
lhumerus 74.5125 -33.9885 42.2044
lradius 65.6499 -0 0
lwrist 10.225 0 0
lhand -14.2803 35.4444 -0.0145639
lfingers 7.12502 -0 0
lthumb 11.8596 65.123 -0.0132691
rclavicle 4.57205e-14 -6.59965e-14 0
rhumerus -38.5136 30.6183 -75.3772
rradius 94.82 -0 0
rwrist -38.8663 0 0
rhand -11.4198 -42.842 0.0522544
rfingers 7.12502 -0 0
rthumb 14.614 -72.2718 0.0576522
1945
root 4.3478 13.8703 28.4581 -58.5086 79.5878 -63.1361
lfemur -64.3474 10.7851 -16.6697
ltibia 65.075 -0 0
lfoot -6.00903 2.38266 -0.161913
ltoes -32.7632 0 0
rfemur -8.12381 -5.95195 22.074
rtibia 62.6023 -0 0
rfoot -28.6993 -31.6626 0.0899162
rtoes -27.9601 0 0
lowerback 13.781 3.36515 5.26425
upperback -0.613998 5.79666 3.85858
thorax -8.36027 2.72422 0.03596
lowerneck -0.530617 14.64 6.9506
upperneck 4.37254 19.9239 -7.94015
head 3.17316 9.91466 -2.93848
lclavicle 4.57205e-14 -6.59965e-14 0
lhumerus 75.6556 -34.6038 40.6864
lradius 68.555 -0 0
lwrist 10.9022 0 0
lhand -14.4396 35.6119 -0.0186452
lfingers 7.12502 -0 0
lthumb 11.7059 65.2976 -0.0173887
rclavicle 4.57205e-14 -6.59965e-14 0
rhumerus -38.0931 31.498 -75.2413
rradius 95.2118 -0 0
rwrist -39.3717 0 0
rhand -11.1597 -42.7536 0.0538162
rfingers 7.12502 -0 0
rthumb 14.8646 -72.1645 0.0591883
